<?xml version="1.0" encoding="UTF-8"?>
<!-- Created with Inkscape (http://www.inkscape.org/) -->
    <svg width="210mm" height="297mm" version="1.1" viewBox="0 0 210 297" 
    xmlns="http://www.w3.org/2000/svg"
    fill="#f1f1f1">
         <path d="m86.451 217.96c-2.11-0.12457-4.7887-0.32047-5.9526-0.43533l-2.1161-0.20885-0.237-1.1266c-0.21209-1.0082-0.17225-1.1828 0.37899-1.6608 0.33879-0.29384 0.92146-0.59749 1.2948-0.67478 0.37334-0.0773 1.2741-0.30982 2.0017-0.51672 0.7276-0.20691 1.8587-0.45281 2.5135-0.54646 4.182-0.59806 6.3691-1.8434 7.1071-4.0469 0.20952-0.62554 0.30124-4.9958 0.30124-14.354 0-13.309-6e-3 -13.454-0.53288-13.454-0.76289 0-2.2138 1.0203-2.73 1.9199-0.50523 0.88032-0.56099 2.3623-0.16871 4.4844 0.19512 1.0555 0.18685 1.8021-0.0291 2.6283-0.1659 0.63468-0.39906 2.6639-0.51813 4.5093s-0.34397 3.5935-0.49978 3.8847c-0.33574 0.62732-1.1552 0.93408-1.9574 0.73274-0.85171-0.21377-2.2009-2.1272-2.7025-3.8328-0.24168-0.82179-0.53573-1.7323-0.65345-2.0233-0.11771-0.29104-0.33804-1.4904-0.48961-2.6652-0.31003-2.4029 0.11087-6.3558 0.86333-8.1081 0.23232-0.54103 0.42241-1.2952 0.42241-1.6759 0-0.86225 2.3188-3.3746 3.529-3.8236 1.9782-0.73393 3.3211-1.4195 3.1915-1.6292-0.0767-0.12414 0.0466-0.29713 0.27415-0.38444 0.31217-0.11978 0.41492-0.55749 0.41885-1.7841 3e-3 -0.89394 0.20406-2.5778 0.4471-3.742 0.92386-4.4253 0.38232-18.785-0.92798-24.606-0.56453-2.5082-2.3715-5.6659-3.773-6.5933-0.57644-0.38147-1.5811-0.71069-2.5219-0.82645-0.8601-0.10582-2.0996-0.35361-2.7544-0.55064-0.65484-0.19704-1.511-0.35954-1.9026-0.36111-0.3916-2e-3 -0.78558-0.12193-0.87551-0.26745-0.0899-0.14552-0.54941-0.26458-1.021-0.26458s-0.97062-0.10151-1.1089-0.22558c-0.13825-0.12407-0.81997-0.37852-1.5149-0.56546s-1.3271-0.44261-1.4047-0.56817-0.36815-0.22829-0.64566-0.22829c-0.54339 0-2.2569-0.71356-2.9038-1.2092-0.21828-0.16725-1.0726-0.66908-1.8986-1.1152-6.3678-3.4394-11.246-8.7283-13.827-14.991-1.7681-4.2906-2.1551-10.998-0.88627-15.361 0.81348-2.7969 1.6695-4.8887 2.5887-6.3259 0.3638-0.5688 0.89958-1.4189 1.1906-1.8891s0.79354-1.2089 1.1167-1.6415c0.32312-0.43261 0.56125-0.83266 0.52917-0.88899-0.03208-0.0563-0.02035-0.0843 0.02609-0.0621 0.04643 0.0222 1.2371-1.1151 2.6458-2.5274 1.4088-1.4122 2.9781-2.8534 3.4874-3.2026 0.50932-0.34919 0.98557-0.7059 1.0583-0.79269 0.07276-0.0868 0.54901-0.44397 1.0583-0.79375s0.98557-0.71016 1.0583-0.80086 0.9062-0.68519 1.8521-1.3211c0.94588-0.63592 1.8771-1.3116 2.0694-1.5015 0.19229-0.1899 0.43163-0.34528 0.53187-0.34528 0.10023 0 0.47925-0.2754 0.84225-0.61199 0.36301-0.3366 0.87453-0.73205 1.1367-0.87878 1.0093-0.56485 3.5681-3.3276 4.2609-4.6005 1.0606-1.9486 1.7397-4.5203 1.4882-5.6354-0.2639-1.1701-1.0693-2.2772-1.6643-2.2879-0.25466-5e-3 -0.46302-0.12738-0.46302-0.2729 0-0.49421-1.831-0.26725-3.3659 0.41721-0.8409 0.37499-2.0647 0.85723-2.7195 1.0717-0.65485 0.21443-1.4288 0.49506-1.7198 0.62364-0.67232 0.29701-1.9968 0.67154-3.7875 1.0711-1.7747 0.39594-2.6541 0.83445-3.5513 1.7709-0.7917 0.82635-1.5247 2.6536-1.5247 3.8008 0 1.2156 0.78489 3.179 1.885 4.7154 1.1686 1.6321 1.3371 2.834 0.50299 3.5889-0.4386 0.39692-0.78765 0.44281-2.1747 0.28588-2.338-0.26452-4.1732-1.2265-6.1522-3.2252-1.7774-1.7949-2.4589-2.8862-3.0354-4.8599-0.19127-0.65484-0.45294-1.5358-0.58149-1.9577-0.90678-2.9762 0.48784-7.918 2.9507-10.456 0.52543-0.54142 1.2012-1.512 1.5017-2.1568 0.30053-0.64482 0.87454-1.8868 1.2756-2.7599 0.63235-1.3767 1.0712-2.0772 2.3727-3.7866 0.22723-0.29848 0.91407-0.96879 2.0874-2.0372 0.60511-0.55099 3.79-1.9995 5.3209-2.42 1.9606-0.53849 8.1982-0.61761 9.7896-0.12417 2.0163 0.6252 4.101 1.4806 4.101 1.6826 0 0.11166 0.22516 0.20302 0.50036 0.20302 1.2298 0 4.576 3.6338 6.0725 6.5942 1.424 2.8172 1.8938 4.9822 1.8938 8.7275 0 1.8116-0.111 3.6595-0.24666 4.1064s-0.39543 1.3483-0.57727 2.0032c-0.39102 1.4081-2.5129 5.6708-3.041 6.109-0.20263 0.16817-0.36842 0.42287-0.36842 0.56601 0 0.43019-1.5419 2.3052-4.0842 4.9666-4.2337 4.432-7.6266 8.176-8.0896 8.927-0.24771 0.40169-0.70555 0.95715-1.0174 1.2344-0.31188 0.27721-0.56705 0.64189-0.56705 0.81039s-0.35718 0.64858-0.79375 1.0668c-0.43656 0.41825-0.79375 0.86683-0.79375 0.99685 0 0.13001-0.40531 0.85188-0.9007 1.6041-1.8156 2.7571-2.3959 5.2366-1.612 6.8883 0.49321 1.0394 1.2209 1.244 2.3317 0.65562 1.007-0.53338 2.7074-2.8841 4.6514-6.4302 1.263-2.304 1.8029-3.0224 3.4873-4.6408 1.9068-1.8321 2.569-2.3812 2.8713-2.3812 0.13174 0 0.2792-0.10257 0.32771-0.22792 0.12892-0.33317 3.5381-2.0286 5.3799-2.6754 2.6863-0.94347 5.1337-1.3538 9.0498-1.5175 6.4213-0.26829 10.522 0.41682 16.218 2.7096 2.6884 1.0822 3.3418 1.4068 3.7001 1.8386 0.18339 0.22096 0.43841 0.40175 0.5667 0.40175 0.1283 0 1.215 0.64896 2.415 1.4421 2.7816 1.8386 6.7187 5.5475 9.8809 9.3079 1.362 1.6196 3.6247 4.1525 5.0282 5.6286 2.4729 2.6007 2.547 2.7143 2.3951 3.6698-0.18989 1.1946-0.12234 1.3024 1.5379 2.4548 4.6522 3.2291 8.8683 7.7591 8.8709 9.5314 1e-3 0.72585-0.96944 1.832-1.6073 1.832-0.21095 0-1.035-0.23812-1.8313-0.52916-1.7689-0.64657-1.9176-0.65261-1.6276-0.0662 1.4802 2.9929 2.4213 5.2133 2.4213 5.7125 0 0.74508-1.0232 1.762-1.7728 1.762-0.44845 0-3.5678-1.8306-4.048-2.3756-0.0728-0.0826-0.48948-0.38551-0.92605-0.67319-0.63352-0.41747-1.2477-0.52326-3.0427-0.52406-2.8139-1e-3 -4.1084-0.58196-6.6569-2.9861l-1.791-1.6896-1.2 0.59929c-0.65998 0.32962-1.2 0.68716-1.2 0.79454s-0.70566 0.52846-1.5681 0.93573c-0.86248 0.40726-1.4989 0.85248-1.4143 0.98936s0.0205 0.1665-0.14239 0.0658c-0.25892-0.16003-1.9867 0.77516-6.4001 3.4642-0.65484 0.39899-1.5786 0.89026-2.0528 1.0917-0.55048 0.23386-0.92807 0.61876-1.0444 1.0647-0.28876 1.1066-0.22434 4.4348 0.0936 4.8338 0.15889 0.19939 0.43954 0.83879 0.62365 1.4209 0.35174 1.112 1.8226 4.7799 2.6732 6.6662 0.2753 0.61048 0.50054 1.1697 0.50054 1.2428 0 0.073 0.40401 1.0023 0.8978 2.065 0.49378 1.0627 1.1468 2.4927 1.4512 3.1776 0.58254 1.3109 2.1477 3.8679 2.7419 4.4794 0.70153 0.72193 1.4326 1.9721 1.7612 3.0117 0.28851 0.91288 0.27279 1.2218-0.11098 2.181-0.63943 1.5981-3.0961 3.7421-5.1932 4.5323-4.1632 1.5687-16.683 8.1916-17.318 9.1613-0.32977 0.50328-0.44509 2.9695-0.68566 14.663-0.21662 10.529-0.21322 14.225 0.0135 14.723 0.16651 0.36545 0.30274 1.0311 0.30274 1.4792 0 0.4481 0.35719 1.5176 0.79375 2.3767 0.43657 0.8591 0.79375 1.8915 0.79375 2.2941 0 0.75736-0.99151 1.8674-2.9321 3.2825-2.7241 1.9865-3.5656 2.1392-9.7679 1.7731zm5.3448-1.6024c1.8246-0.38619 2.491-0.74451 3.8287-2.0586 0.60704-0.59633 1.2358-1.0842 1.3974-1.0842 0.49568 0 0.62817-0.78766 0.21306-1.2666-0.21601-0.24924-0.6174-1.0485-0.89198-1.7761-0.46831-1.241-0.49923-2.2734-0.49923-16.669 0-15.311 1e-3 -15.351 0.6318-17.816 0.655-2.5606 0.66255-3.9352 0.0424-7.7166-0.13127-0.80036-0.24223-3.0626-0.24659-5.0271-7e-3 -3.2321 0.10156-5.6948 0.66174-14.989 0.0978-1.6228 0.10141-3.1498 8e-3 -3.3932-0.15388-0.40103-0.2354-0.39104-0.8677 0.10633-0.82829 0.65153-2.0125 0.71258-2.5915 0.1336-0.22843-0.22843-0.68342-0.37726-1.0111-0.33073-0.56213 0.0798-0.59524 0.20405-0.58681 2.2013 5e-3 1.1642 0.18244 4.0812 0.3945 6.4823 0.47963 5.4307 0.47753 12.772-5e-3 16.309-0.33082 2.4266-0.32043 2.9447 0.10877 5.424 0.26098 1.5076 0.58098 3.0863 0.71109 3.5082 0.36783 1.1927 0.30291 29.642-0.0705 30.888-0.39291 1.3114-1.8466 3.0107-3.1401 3.6706-0.88324 0.4506-3.5911 1.1696-7.0039 1.8598-0.58209 0.11771-1.4155 0.36389-1.8521 0.54707-0.748 0.31385-0.65649 0.34539 1.5875 0.54727 1.3097 0.11783 3.0956 0.31832 3.9688 0.44553 2.3141 0.33717 3.6333 0.33817 5.2125 4e-3zm-6.2529-20.054c-0.0671-0.23041-0.20359-0.87841-0.30328-1.44-0.16963-0.95553-0.14506-1.0096 0.38277-0.84207 0.53838 0.17088 0.56403 0.0962 0.56403-1.6429 0-1.002 0.17851-2.423 0.39669-3.1577 0.30792-1.0369 0.33753-1.6478 0.13229-2.73-0.69966-3.6893-0.16839-5.0922 2.4529-6.4772 1.2145-0.64172 2.3098-1.6284 2.3098-2.0809 0-0.18458-0.14926-0.53973-0.33169-0.78922-0.30469-0.41668-0.52553-0.34978-2.712 0.82147-3.0344 1.6255-3.5709 1.9745-3.5709 2.3231 0 0.15594-0.22527 0.75238-0.5006 1.3254-0.8821 1.8359-1.4363 5.282-1.2526 7.7888 0.14669 2.0014 1.0977 5.7828 1.5742 6.2593 0.0984 0.0984 0.17893 0.37737 0.17893 0.61991 0 0.24253 0.18032 0.44097 0.40071 0.44097 0.24055 0 0.35194-0.16744 0.27869-0.41892zm16.254-23.37c1.0914-0.58518 2.6988-1.4351 3.5719-1.8887 0.87312-0.45363 1.6272-0.91408 1.6757-1.0232 0.0485-0.10914 0.3164-0.19843 0.59531-0.19843 0.27892 0 0.50712-0.11907 0.50712-0.26459s0.23813-0.26458 0.52917-0.26458 0.52917-0.11906 0.52917-0.26458c0-0.14553 0.17154-0.26459 0.3812-0.26459 0.20967 0 1.311-0.47473 2.4474-1.055 1.1364-0.58024 2.2198-1.0565 2.4075-1.0583 0.61771-6e-3 2.2869-1.0025 3.3025-1.9714 1.1924-1.1376 1.5855-2.827 0.86575-3.7205-1.6993-2.1096-2.9634-3.9908-3.8568-5.7392-0.95505-1.8691-5.4813-12.696-6.1451-14.7-0.27695-0.83588-0.98987-1.2074-0.98987-0.51577 0 0.18927-0.14883 0.66459-0.33073 1.0563-0.28926 0.62284-0.48478 0.7124-1.5592 0.71421-0.82473 1e-3 -1.2766 0.12751-1.3749 0.38378-0.21128 0.55058 0.2393 1.9318 1.0102 3.0967 0.36694 0.55449 0.66717 1.0585 0.66717 1.1201 0 0.0616 1.1421 2.1038 2.5381 4.5382 3.4211 5.9661 4.8702 9.109 4.8702 10.562 0 0.68236-0.27266 1.1048-1.3891 2.152-1.1989 1.1246-4.4952 3.549-4.8253 3.549-0.0618 0-0.74266 0.37645-1.513 0.83656s-2.2937 1.2999-3.3851 1.8661c-2.6109 1.3546-3.7042 2.4126-3.7042 3.5848 0 0.80184 0.0602 0.87382 0.59532 0.71236 0.32742-0.0988 1.4883-0.65839 2.5797-1.2436zm-2.2679-3.3442c0.0795-0.12863 0.71159-0.4996 1.4047-0.82439s1.3197-0.66604 1.3924-0.75833c0.0728-0.0923 0.60854-0.4149 1.1906-0.71691 1.525-0.79124 2.3622-1.2794 2.5136-1.4659 0.0728-0.0896 0.60854-0.40434 1.1906-0.69945 0.58208-0.2951 1.2965-0.80279 1.5875-1.1282s0.98004-0.87812 1.5311-1.2283 0.93608-0.74319 0.85558-0.87344-0.0254-0.31161 0.12254-0.40301c0.14789-0.0914 0.2689-0.38162 0.2689-0.64492 0-0.52648-2.3855-5.2586-3.6796-7.2991-0.45008-0.7097-0.81832-1.3767-0.81832-1.4823 0-0.17458-2.2908-4.3157-2.9102-5.2607-0.14305-0.21828-0.55297-0.94691-0.91091-1.6192-0.65807-1.2359-2.045-2.6191-2.6154-2.6083-0.61259 0.0116-1.4141 0.93931-1.7093 1.9785-0.31681 1.1151-0.42985 2.521-0.84033 10.451-0.13936 2.6921-0.33369 5.8633-0.43185 7.0471-0.16868 2.0341 0.0532 4.1164 0.72223 6.7774 0.23288 0.92629 0.79883 1.304 1.1361 0.75833zm-3.2954-28.143c0.0102-0.28388 0.80086-0.24653 0.80086 0.0378 0 0.32913 0.71664 0.57046 1.1735 0.39516 0.34947-0.13411 2.5307-4.2528 2.5307-4.7786 0-0.39378 1.608-2.2028 1.958-2.2028 0.49334 0 3.4094-1.2071 6.1218-2.5342 1.3152-0.64347 2.4656-1.17 2.5564-1.17 0.23067 0 3.2858-1.7405 8.4277-4.8013 5.455-3.2471 5.7148-3.2846 7.5202-1.0857 1.2267 1.494 3.7495 3.231 4.7027 3.2378 0.25466 2e-3 0.46302-0.0398 0.46302-0.0926 0-0.0527-0.36099-0.97131-0.8022-2.0412s-0.76863-2.108-0.72761-2.3067c0.0442-0.21403 0.82979 0.37904 1.9267 1.4545 1.609 1.5776 2.9673 2.6782 6.138 4.9738 0.6505 0.47096 1.9318 1.0041 1.9318 0.80379 0-0.5253-2.8622-5.9302-3.438-6.4923-0.31258-0.30514-1.8662-2.9861-1.7802-3.072 0.10467-0.10466 1.8361 0.48245 2.0432 0.69285 0.0728 0.0739 1.0848 0.53016 2.249 1.0139 1.1642 0.48376 2.3234 0.98885 2.5761 1.1224 0.65425 0.34581 0.99578 0.30083 0.99578-0.13116 0-0.99586-8.4466-8.3889-10.458-9.1537-0.49931-0.18984-1.4683-0.12288-3.5161 0.24296-1.5548 0.27776-3.6274 0.589-4.606 0.69164-1.6367 0.17168-1.7578 0.22657-1.512 0.68569 0.1469 0.27449 0.39047 0.49907 0.54127 0.49907 0.40532 0 1.0301 0.69742 1.0301 1.1498 0 0.22546-0.5374 0.60124-1.2568 0.87879-1.03 0.3974-1.9969 0.48296-5.3578 0.47415-2.2556-6e-3 -4.994-0.16231-6.0854-0.34755-2.6588-0.45125-3.7042-0.55811-3.7042-0.37863 0 0.0821 0.78039 0.91827 1.7342 1.8581 1.0216 1.0066 1.7001 1.8884 1.6512 2.1459-0.26235 1.381-10.22-0.0356-14.693-2.0904-0.61688-0.28335-1.2122-0.51485-1.3229-0.51445-0.32097 1e-3 -2.5735-1.171-2.6708-1.3898-0.0485-0.10914-0.30891-0.19844-0.57867-0.19844-0.41232 0-0.46666 0.14685-0.34097 0.92136 0.20222 1.2461-0.34208 1.4182-2.1063 0.66578-3.2589-1.3899-6.2658-4.3229-8.2327-8.0305-1.0779-2.0318-1.1732-2.5525-0.46735-2.5525 0.31526 0 0.66002 0.37928 0.97037 1.0675 0.26477 0.58715 0.72934 1.3511 1.0324 1.6977 0.30304 0.34661 0.90817 1.1335 1.3447 1.7486 0.97474 1.3735 4.0296 3.9528 4.6817 3.9528 0.38091 0 0.47769-0.21441 0.47769-1.0583 0-0.94902 0.0675-1.0583 0.65341-1.0583 0.57605 0 2.1704 0.72538 2.9185 1.3278 0.14552 0.11719 1.3957 0.70096 2.7781 1.2972 1.3824 0.5963 2.7203 1.2021 2.973 1.3462s0.6694 0.26379 0.92604 0.2659c0.25663 2e-3 1.0024 0.19512 1.6572 0.4289 1.3396 0.47822 4.7607 1.1416 5.928 1.1496 0.72794 5e-3 0.74544-0.0204 0.33073-0.47865-0.24084-0.26612-0.43788-0.62331-0.43788-0.79375s-0.0972-0.3099-0.21594-0.3099c-0.34572 0-1.7232-3.0847-1.5225-3.4094 0.225-0.36405 1.4033-0.38129 2.4265-0.0355 0.95529 0.32281 4.9672 1.0619 7.2252 1.3311 1.7264 0.20579 5.6754-0.01 5.9927-0.32683 0.0961-0.0961-0.0844-0.53848-0.40098-0.98312-0.34451-0.48382-0.54202-1.1008-0.49188-1.5366l0.0838-0.72815 2.7781-0.17051c1.528-0.0938 3.9688-0.4277 5.424-0.74205 1.4552-0.31434 2.9747-0.63828 3.3767-0.71988s0.79027-0.24451 0.86289-0.36202c0.0726-0.11752-0.89195-1.2051-2.1435-2.4169-1.2516-1.2118-2.5328-2.5785-2.8473-3.0371-1.3816-2.015-5.5589-6.6912-7.0947-7.9419-0.92352-0.75207-1.9172-1.5865-2.2083-1.8542s-0.82682-0.6903-1.1906-0.93903c-0.3638-0.24874-1.14-0.79175-1.7249-1.2067-2.9231-2.0736-8.6468-4.4155-12.758-5.22-2.614-0.51152-9.6952-0.60371-12.24-0.15935-3.965 0.69248-7.5273 2.0719-9.1119 3.5284-0.28211 0.25929-0.59982 0.47144-0.70604 0.47144-0.45721 0-4.4696 3.8899-4.4696 4.3332 0 0.12924-0.21295 0.42754-0.47322 0.66289-0.47918 0.43328-3.2273 4.9014-3.2353 5.2602-2e-3 0.10713-0.68701 0.9487-1.5214 1.8702l-1.517 1.6754-1.561 0.0336c-1.4919 0.0321-1.5989-0.0104-2.4187-0.95872-1.0166-1.176-1.5454-3.0213-1.296-4.5224 0.22678-1.3649 1.7301-4.5723 3.1096-6.6345 0.95413-1.4263 1.4282-2.0284 3.4432-4.3732 0.31621-0.36797 1.1107-1.3205 1.7656-2.1167 0.65484-0.7962 2.3792-2.6729 3.832-4.1704 1.4527-1.4975 2.7383-2.896 2.8569-3.1079 0.11856-0.21184 0.63423-0.83208 1.146-1.3783s1.4843-1.7671 2.1612-2.7129c0.67694-0.94589 1.3011-1.7793 1.3871-1.8521 0.086-0.0728 0.3214-0.54902 0.52316-1.0583s0.44526-0.98557 0.54111-1.0583c0.28957-0.21979 1.2398-3.1979 1.5886-4.9784 0.54675-2.7916-0.15695-7.7592-1.4506-10.24-0.22618-0.43378-0.41197-0.88434-0.41287-1.0012-3e-3 -0.41558-2.912-3.8522-3.7648-4.4479-0.4769-0.33314-0.92662-0.67594-0.99938-0.76179-0.23861-0.28151-3.8087-1.7616-5.0854-2.1082-2.5662-0.69683-10.525 0.12617-10.525 1.0884 0 0.12341-0.1256 0.22439-0.2791 0.22439-1.0386 0-5.2797 3.7745-5.6796 5.0547-0.1089 0.34861-0.28269 0.69336-0.38619 0.76612-0.1035 0.0728-0.26485 0.44592-0.35856 0.82923l-0.17037 0.69694 2.6359 0.10587c2.1257 0.0854 2.775 0.20971 3.3544 0.64233 1.3924 1.0396 1.7607 1.8145 1.925 4.0495 0.08504 1.1573 0.23841 2.188 0.34082 2.2904 0.25829 0.2583 3.8333-0.78815 5.0303-1.4724 0.25269-0.14445 0.64125-0.26264 0.86349-0.26264 0.22223 0 0.61079-0.10445 0.86348-0.23211 1.7293-0.87362 4.1121-1.0717 5.3281-0.44287 1.0915 0.56443 2.3379 2.1014 2.7092 3.3408 0.54343 1.8138 9e-3 4.5242-1.3406 6.7954-1.2527 2.1086-4.7281 5.6221-7.4027 7.4838-0.93152 0.64842-2.241 1.5721-2.9099 2.0527-0.66894 0.48057-1.5139 1.0759-1.8777 1.3229-0.68405 0.46449-1.1852 0.87948-3.6859 3.0523-3.6821 3.1994-6.2437 6.4814-8.0869 10.361-1.5441 3.2504-2.0124 5.2786-2.1689 9.3927-0.09376 2.4659-0.0085 3.5067 0.44975 5.4901 0.31099 1.3461 0.67593 2.4474 0.81098 2.4474s0.24554 0.24152 0.24554 0.53671c0 0.55032 1.4003 3.5205 1.9452 4.1258 0.16708 0.18564 0.89909 1.176 1.6267 2.2008 0.7276 1.0248 1.4788 1.8643 1.6693 1.8656 0.19049 1e-3 0.2736 0.11997 0.1847 0.26383-0.09619 0.15564 0.02323 0.1906 0.2949 0.0863 0.33951-0.13028 0.41616-0.0699 0.299 0.23538-0.20312 0.52931 0.276 1.0084 0.80531 0.80531 0.29805-0.11437 0.36542-0.0399 0.24582 0.27178-0.12184 0.3175-0.05292 0.38642 0.26458 0.26459 0.33571-0.12883 0.38742-0.0555 0.23712 0.33614-0.10572 0.27549-0.11072 0.4194-0.01111 0.3198 0.0996-0.0996 0.80334 0.35051 1.5639 1.0002s1.4539 1.1813 1.5409 1.1813c0.08699 0 0.60331 0.30209 1.1474 0.67131 1.332 0.90389 6.5657 3.3859 7.964 3.7768 3.1381 0.87729 6.0865 1.5456 8.4005 1.9042 1.0186 0.15785 2.3582 0.53025 2.9769 0.82755 1.0878 0.52277 2.7117 2.1693 2.7117 2.7495 0 0.43962 0.63769 1.7079 0.85989 1.7102 0.10914 1e-3 0.19843 0.18586 0.19843 0.41049s0.28269 0.71328 0.62819 1.0859l0.62819 0.67748 0.76087-0.9536c0.77948-0.97691 1.1578-1.1886 1.1578-0.64785 0 0.16816 0.31664 0.7209 0.70366 1.2283l0.70367 0.92256 0.74442-0.89758c0.40944-0.49367 0.74763-0.98688 0.75155-1.096zm-34.786-16.073c-0.08994-0.14552-0.03743-0.26458 0.11668-0.26458 0.15411 0 0.2802 0.11906 0.2802 0.26458 0 0.14553-0.0525 0.26459-0.11668 0.26459-0.06417 0-0.19026-0.11906-0.2802-0.26459zm5.8618-63.719c-0.56387-0.62306-0.55549-1.1848 0.02514-1.6854 0.51523-0.44416 2.1371-1.2704 2.4937-1.2704 0.51542 0 2.3949-1.4651 2.7429-2.1382 0.78192-1.5121 1.7086-2.018 1.7086-0.9328 0 0.34823 0.17859 0.70168 0.39687 0.78544 0.62517 0.23991 0.46434 0.90089-0.31119 1.279-0.81588 0.39772-1.1211 1.0066-0.50461 1.0066 0.23041 0 0.41893 0.1786 0.41893 0.39688 0 0.29986-0.32338 0.39687-1.3229 0.39687-1.2323 0-1.6779 0.27854-1.0583 0.66146 0.3774 0.23325 0.32781 0.92636-0.0661 0.92441-0.1819-8.9e-4 -0.67587-0.18162-1.0977-0.4016-0.86448-0.45083-1.1901-0.33371-0.70317 0.25296 0.17879 0.21542 0.24826 0.51596 0.15438 0.66785-0.27301 0.44174-0.87222 0.3204-1.2779-0.25877-0.32553-0.46475-0.41727-0.48363-0.69924-0.14388-0.1785 0.21508-0.24774 0.51534-0.15386 0.66723 0.28721 0.46472-0.28008 0.3067-0.74558-0.20768zm35.643 79.264c0.0877-0.32743 0.16117-0.86321 0.16316-1.1906 5e-3 -0.73985 0.24902-0.74489 1.4605-0.0301 1.146 0.67614 1.3922 0.49684 1.5029-1.0944 0.0699-1.0046 0.16919-1.1906 0.63539-1.1906 0.8532 0 1.4318-0.63812 1.4318-1.579v-0.85274l-1.1245 0.29909c-2.8182 0.74958-4.5141 2.0586-5.4356 4.1956-0.46223 1.072-0.39603 1.495 0.27621 1.7652 0.86398 0.34728 0.91453 0.33232 1.09-0.32248zm-44.663-61.855c-1.6684-1.7836-2.3277-3.3471-2.4774-5.8743-0.13328-2.2508 0.07213-2.9942 1.3869-5.0196 0.70155-1.0807 1.1749-1.4261 3.5823-2.6139 2.8774-1.4196 3.4269-1.8615 3.4269-2.7554 0-1.2949-1.2243-1.9844-3.5235-1.9844-1.4863 0-1.9365 0.12513-3.2768 0.91066-1.6439 0.96346-3.7662 3.0476-3.7662 3.6985 0 0.21322-0.25757 0.82422-0.57238 1.3578-0.47539 0.80572-0.5705 1.3727-0.56124 3.346 0.0061 1.3068 0.12907 2.6332 0.27321 2.9476 0.14414 0.31444 0.54344 1.2124 0.88734 1.9956 0.60011 1.3665 2.6696 3.6746 3.1713 3.5371 0.13272-0.0364 0.21155 0.0471 0.17517 0.1855-0.07986 0.30384 1.6362 1.5692 2.1529 1.5875 0.20181 7e-3 -0.19356-0.58624-0.87861-1.3186zm2.3295-0.45435c-0.09715-0.40018-0.45661-1.3675-0.79879-2.1496-1.2668-2.8954-0.71005-4.7034 2.4456-7.942 1.0776-1.106 1.9593-2.1403 1.9593-2.2986 0-0.52065-0.28624-0.58905-1.0081-0.24087-0.39144 0.18881-1.2475 0.59028-1.9023 0.89217-1.3703 0.6317-2.5893 1.6529-3.4021 2.85-1.0045 1.4795-0.69178 5.4366 0.58225 7.3675 0.68857 1.0436 1.8037 2.249 2.0806 2.249 0.12107 0 0.14063-0.32743 0.04348-0.72761z" stroke-width=".26458"/>
</svg>
